<?xml version="1.0" encoding="UTF-8" standalone="no"?>
<!DOCTYPE svg PUBLIC "-//W3C//DTD SVG 1.1//EN" "http://www.w3.org/Graphics/SVG/1.1/DTD/svg11.dtd">
<svg width="100%" height="100%" viewBox="0 0 2970 436" version="1.1" xmlns="http://www.w3.org/2000/svg" xmlns:xlink="http://www.w3.org/1999/xlink" xml:space="preserve" xmlns:serif="http://www.serif.com/" style="fill-rule:evenodd;clip-rule:evenodd;stroke-linejoin:round;stroke-miterlimit:2;">
    <g transform="matrix(1,0,0,1,-15.2844,-243.314)">
        <g transform="matrix(1,0,0,1,-42.8493,2.19437)">
            <g transform="matrix(1.05907,0,0,1.05907,-1187.92,22.2126)">
                <g transform="matrix(460.901,0,0,460.901,1157.01,576.339)">
                    <path d="M0.262,0.09L0.262,-0.802L0.341,-0.802L0.341,0.09L0.262,0.09ZM0.307,0.012C0.255,0.012 0.21,0.002 0.171,-0.018C0.133,-0.038 0.103,-0.066 0.081,-0.103C0.059,-0.14 0.046,-0.184 0.042,-0.236L0.164,-0.243C0.169,-0.21 0.177,-0.183 0.19,-0.162C0.202,-0.14 0.219,-0.123 0.239,-0.112C0.259,-0.101 0.283,-0.096 0.311,-0.096C0.34,-0.096 0.364,-0.099 0.383,-0.106C0.402,-0.113 0.416,-0.123 0.425,-0.136C0.435,-0.149 0.44,-0.165 0.44,-0.184C0.44,-0.204 0.435,-0.221 0.426,-0.236C0.417,-0.25 0.4,-0.262 0.375,-0.274C0.349,-0.285 0.313,-0.297 0.265,-0.308C0.219,-0.32 0.181,-0.334 0.15,-0.352C0.12,-0.369 0.097,-0.391 0.082,-0.417C0.067,-0.443 0.059,-0.474 0.059,-0.51C0.059,-0.551 0.068,-0.587 0.087,-0.617C0.106,-0.647 0.133,-0.671 0.169,-0.687C0.205,-0.704 0.248,-0.712 0.299,-0.712C0.349,-0.712 0.392,-0.703 0.427,-0.685C0.463,-0.667 0.491,-0.641 0.511,-0.607C0.531,-0.573 0.544,-0.533 0.548,-0.486L0.426,-0.48C0.422,-0.506 0.416,-0.528 0.406,-0.547C0.396,-0.565 0.382,-0.58 0.364,-0.59C0.346,-0.599 0.323,-0.604 0.295,-0.604C0.257,-0.604 0.227,-0.597 0.207,-0.581C0.186,-0.565 0.175,-0.543 0.175,-0.516C0.175,-0.496 0.18,-0.48 0.188,-0.468C0.197,-0.455 0.212,-0.444 0.235,-0.435C0.257,-0.425 0.289,-0.415 0.33,-0.404C0.387,-0.389 0.432,-0.372 0.465,-0.353C0.498,-0.333 0.522,-0.31 0.536,-0.284C0.55,-0.257 0.558,-0.225 0.558,-0.187C0.558,-0.146 0.547,-0.111 0.527,-0.081C0.507,-0.051 0.478,-0.028 0.44,-0.012C0.403,0.004 0.359,0.012 0.307,0.012Z" style="fill:rgb(101,101,101);fill-rule:nonzero;"/>
                </g>
                <g transform="matrix(460.901,0,0,460.901,1515.12,576.339)">
                    <path d="M0.35,0.012C0.312,0.012 0.28,0.003 0.252,-0.014C0.225,-0.032 0.204,-0.055 0.189,-0.083L0.186,-0L0.074,-0L0.074,-0.71L0.192,-0.71L0.192,-0.459C0.206,-0.483 0.226,-0.504 0.254,-0.521C0.281,-0.538 0.313,-0.546 0.35,-0.546C0.394,-0.546 0.433,-0.535 0.466,-0.513C0.498,-0.49 0.523,-0.458 0.541,-0.417C0.559,-0.375 0.568,-0.325 0.568,-0.267C0.568,-0.209 0.559,-0.159 0.541,-0.117C0.523,-0.076 0.498,-0.044 0.466,-0.021C0.433,0.001 0.394,0.012 0.35,0.012ZM0.322,-0.094C0.362,-0.094 0.392,-0.11 0.413,-0.14C0.434,-0.17 0.445,-0.212 0.445,-0.267C0.445,-0.322 0.434,-0.364 0.413,-0.395C0.392,-0.425 0.362,-0.44 0.324,-0.44C0.297,-0.44 0.274,-0.433 0.254,-0.42C0.234,-0.406 0.219,-0.387 0.208,-0.361C0.198,-0.335 0.192,-0.304 0.192,-0.267C0.192,-0.231 0.198,-0.2 0.209,-0.174C0.219,-0.148 0.234,-0.129 0.254,-0.115C0.273,-0.101 0.296,-0.094 0.322,-0.094Z" style="fill-rule:nonzero;"/>
                </g>
                <g transform="matrix(460.901,0,0,460.901,1791.66,576.339)">
                    <path d="M0.305,0.012C0.255,0.012 0.212,0.001 0.174,-0.022C0.136,-0.045 0.107,-0.077 0.086,-0.119C0.065,-0.161 0.055,-0.21 0.055,-0.267C0.055,-0.323 0.065,-0.371 0.086,-0.413C0.107,-0.455 0.136,-0.487 0.173,-0.511C0.21,-0.534 0.253,-0.546 0.303,-0.546C0.351,-0.546 0.394,-0.535 0.431,-0.512C0.468,-0.489 0.496,-0.457 0.517,-0.415C0.538,-0.373 0.549,-0.323 0.549,-0.265L0.549,-0.234L0.177,-0.234C0.181,-0.188 0.194,-0.154 0.217,-0.13C0.24,-0.106 0.27,-0.094 0.307,-0.094C0.336,-0.094 0.359,-0.101 0.378,-0.115C0.397,-0.128 0.41,-0.146 0.418,-0.168L0.539,-0.159C0.522,-0.106 0.494,-0.064 0.454,-0.034C0.414,-0.003 0.364,0.012 0.305,0.012ZM0.178,-0.32L0.421,-0.32C0.418,-0.361 0.405,-0.391 0.384,-0.41C0.362,-0.43 0.335,-0.44 0.302,-0.44C0.268,-0.44 0.241,-0.429 0.219,-0.409C0.198,-0.389 0.184,-0.359 0.178,-0.32Z" style="fill-rule:nonzero;"/>
                </g>
                <g transform="matrix(460.901,0,0,460.901,2068.19,576.339)">
                    <path d="M0.305,0.012C0.255,0.012 0.212,0.001 0.174,-0.022C0.136,-0.045 0.107,-0.077 0.086,-0.119C0.065,-0.161 0.055,-0.21 0.055,-0.267C0.055,-0.323 0.065,-0.371 0.086,-0.413C0.107,-0.455 0.136,-0.487 0.173,-0.511C0.21,-0.534 0.253,-0.546 0.303,-0.546C0.351,-0.546 0.394,-0.535 0.431,-0.512C0.468,-0.489 0.496,-0.457 0.517,-0.415C0.538,-0.373 0.549,-0.323 0.549,-0.265L0.549,-0.234L0.177,-0.234C0.181,-0.188 0.194,-0.154 0.217,-0.13C0.24,-0.106 0.27,-0.094 0.307,-0.094C0.336,-0.094 0.359,-0.101 0.378,-0.115C0.397,-0.128 0.41,-0.146 0.418,-0.168L0.539,-0.159C0.522,-0.106 0.494,-0.064 0.454,-0.034C0.414,-0.003 0.364,0.012 0.305,0.012ZM0.178,-0.32L0.421,-0.32C0.418,-0.361 0.405,-0.391 0.384,-0.41C0.362,-0.43 0.335,-0.44 0.302,-0.44C0.268,-0.44 0.241,-0.429 0.219,-0.409C0.198,-0.389 0.184,-0.359 0.178,-0.32Z" style="fill-rule:nonzero;"/>
                </g>
                <g transform="matrix(460.901,0,0,460.901,2344.73,576.339)">
                    <path d="M0.076,-0L0.076,-0.534L0.184,-0.534L0.188,-0.391L0.176,-0.398C0.182,-0.432 0.194,-0.46 0.21,-0.482C0.227,-0.504 0.248,-0.52 0.272,-0.53C0.296,-0.541 0.323,-0.546 0.351,-0.546C0.391,-0.546 0.423,-0.537 0.448,-0.52C0.473,-0.502 0.492,-0.478 0.505,-0.448C0.518,-0.418 0.524,-0.384 0.524,-0.345L0.524,-0L0.406,-0L0.406,-0.317C0.406,-0.36 0.398,-0.392 0.382,-0.413C0.367,-0.434 0.343,-0.445 0.311,-0.445C0.29,-0.445 0.27,-0.44 0.253,-0.43C0.235,-0.42 0.221,-0.405 0.21,-0.385C0.2,-0.366 0.194,-0.342 0.194,-0.313L0.194,-0L0.076,-0Z" style="fill-rule:nonzero;"/>
                </g>
                <g transform="matrix(460.901,0,0,460.901,2621.27,576.339)">
                    <path d="M0.227,-0L0.04,-0.534L0.167,-0.534L0.3,-0.128L0.433,-0.534L0.56,-0.534L0.373,-0L0.227,-0Z" style="fill:rgb(101,101,101);fill-rule:nonzero;"/>
                </g>
                <g transform="matrix(460.901,0,0,460.901,2897.8,576.339)">
                    <path d="M0.3,0.012C0.25,0.012 0.206,0.001 0.169,-0.022C0.131,-0.045 0.102,-0.077 0.081,-0.119C0.06,-0.161 0.05,-0.21 0.05,-0.267C0.05,-0.324 0.06,-0.373 0.081,-0.415C0.102,-0.457 0.131,-0.489 0.169,-0.512C0.206,-0.535 0.25,-0.546 0.3,-0.546C0.35,-0.546 0.394,-0.535 0.431,-0.512C0.469,-0.489 0.498,-0.457 0.519,-0.415C0.54,-0.373 0.55,-0.324 0.55,-0.267C0.55,-0.21 0.54,-0.161 0.519,-0.119C0.498,-0.077 0.469,-0.045 0.431,-0.022C0.394,0.001 0.35,0.012 0.3,0.012ZM0.3,-0.094C0.34,-0.094 0.372,-0.11 0.394,-0.14C0.416,-0.17 0.427,-0.212 0.427,-0.267C0.427,-0.322 0.416,-0.364 0.394,-0.395C0.372,-0.425 0.34,-0.44 0.3,-0.44C0.26,-0.44 0.228,-0.425 0.206,-0.395C0.184,-0.364 0.173,-0.322 0.173,-0.267C0.173,-0.212 0.184,-0.17 0.206,-0.14C0.228,-0.11 0.26,-0.094 0.3,-0.094Z" style="fill:rgb(101,101,101);fill-rule:nonzero;"/>
                </g>
                <g transform="matrix(460.901,0,0,460.901,3174.34,576.339)">
                    <path d="M0.276,-0L0.276,-0.534L0.394,-0.534L0.394,-0L0.276,-0ZM0.072,-0L0.072,-0.096L0.568,-0.096L0.568,-0L0.072,-0ZM0.082,-0.438L0.082,-0.534L0.377,-0.534L0.377,-0.438L0.082,-0.438ZM0.271,-0.605L0.271,-0.717L0.391,-0.717L0.391,-0.605L0.271,-0.605Z" style="fill:rgb(101,101,101);fill-rule:nonzero;"/>
                </g>
                <g transform="matrix(460.901,0,0,460.901,3450.88,576.339)">
                    <path d="M0.311,0.012C0.26,0.012 0.216,0 0.178,-0.023C0.14,-0.046 0.11,-0.079 0.089,-0.121C0.068,-0.162 0.057,-0.211 0.057,-0.267C0.057,-0.323 0.068,-0.371 0.089,-0.413C0.11,-0.455 0.14,-0.487 0.178,-0.511C0.216,-0.534 0.26,-0.546 0.311,-0.546C0.352,-0.546 0.389,-0.538 0.422,-0.522C0.456,-0.506 0.483,-0.483 0.505,-0.454C0.526,-0.424 0.54,-0.389 0.546,-0.348L0.427,-0.341C0.42,-0.373 0.406,-0.397 0.386,-0.414C0.366,-0.431 0.341,-0.44 0.312,-0.44C0.271,-0.44 0.239,-0.424 0.215,-0.394C0.192,-0.363 0.18,-0.321 0.18,-0.267C0.18,-0.213 0.192,-0.171 0.215,-0.141C0.239,-0.11 0.271,-0.094 0.312,-0.094C0.341,-0.094 0.367,-0.103 0.388,-0.121C0.409,-0.139 0.423,-0.165 0.43,-0.2L0.549,-0.193C0.543,-0.152 0.528,-0.116 0.507,-0.085C0.485,-0.055 0.457,-0.031 0.423,-0.014C0.39,0.003 0.352,0.012 0.311,0.012Z" style="fill:rgb(101,101,101);fill-rule:nonzero;"/>
                </g>
                <g transform="matrix(460.901,0,0,460.901,3727.41,576.339)">
                    <path d="M0.305,0.012C0.255,0.012 0.212,0.001 0.174,-0.022C0.136,-0.045 0.107,-0.077 0.086,-0.119C0.065,-0.161 0.055,-0.21 0.055,-0.267C0.055,-0.323 0.065,-0.371 0.086,-0.413C0.107,-0.455 0.136,-0.487 0.173,-0.511C0.21,-0.534 0.253,-0.546 0.303,-0.546C0.351,-0.546 0.394,-0.535 0.431,-0.512C0.468,-0.489 0.496,-0.457 0.517,-0.415C0.538,-0.373 0.549,-0.323 0.549,-0.265L0.549,-0.234L0.177,-0.234C0.181,-0.188 0.194,-0.154 0.217,-0.13C0.24,-0.106 0.27,-0.094 0.307,-0.094C0.336,-0.094 0.359,-0.101 0.378,-0.115C0.397,-0.128 0.41,-0.146 0.418,-0.168L0.539,-0.159C0.522,-0.106 0.494,-0.064 0.454,-0.034C0.414,-0.003 0.364,0.012 0.305,0.012ZM0.178,-0.32L0.421,-0.32C0.418,-0.361 0.405,-0.391 0.384,-0.41C0.362,-0.43 0.335,-0.44 0.302,-0.44C0.268,-0.44 0.241,-0.429 0.219,-0.409C0.198,-0.389 0.184,-0.359 0.178,-0.32Z" style="fill:rgb(101,101,101);fill-rule:nonzero;"/>
                </g>
                <g transform="matrix(460.901,0,0,460.901,4003.95,576.339)">
                </g>
            </g>
        </g>
    </g>
</svg>
